<svg width="24" height="24" viewBox="0 0 24 24" fill="none" xmlns="http://www.w3.org/2000/svg">
<path d="M14.91 6.71041C14.8175 6.61771 14.7076 6.54416 14.5866 6.49398C14.4656 6.4438 14.336 6.41797 14.205 6.41797C14.074 6.41797 13.9443 6.4438 13.8234 6.49398C13.7024 6.54416 13.5925 6.61771 13.5 6.71041L8.91 11.3004C8.81729 11.3929 8.74375 11.5028 8.69357 11.6238C8.64338 11.7448 8.61755 11.8744 8.61755 12.0054C8.61755 12.1364 8.64338 12.2661 8.69357 12.387C8.74375 12.508 8.81729 12.6179 8.91 12.7104L13.5 17.3004C13.5926 17.393 13.7025 17.4664 13.8235 17.5165C13.9444 17.5666 14.0741 17.5924 14.205 17.5924C14.3359 17.5924 14.4656 17.5666 14.5865 17.5165C14.7075 17.4664 14.8174 17.393 14.91 17.3004C15.0026 17.2078 15.076 17.0979 15.1261 16.977C15.1762 16.856 15.202 16.7263 15.202 16.5954C15.202 16.4645 15.1762 16.3348 15.1261 16.2139C15.076 16.0929 15.0026 15.983 14.91 15.8904L11.03 12.0004L14.91 8.12041C15.29 7.73041 15.29 7.09041 14.91 6.71041Z" fill="black"/>
</svg>
