<svg width="13" height="13" viewBox="0 0 13 13" fill="none" xmlns="http://www.w3.org/2000/svg">
<path d="M3.79434 5.94997L6.02981 1C6.47447 1 6.90092 1.17384 7.21535 1.48327C7.52977 1.7927 7.70641 2.21239 7.70641 2.64999V4.84998H10.8696C11.0316 4.84817 11.1921 4.88105 11.3399 4.94634C11.4878 5.01164 11.6194 5.10778 11.7257 5.22811C11.832 5.34843 11.9105 5.49007 11.9557 5.64321C12.0009 5.79634 12.0117 5.95731 11.9873 6.11497L11.2161 11.0649C11.1757 11.3272 11.0403 11.5663 10.8349 11.7381C10.6295 11.91 10.3679 12.0029 10.0984 11.9999H3.79434M3.79434 5.94997V11.9999M3.79434 5.94997H2.11774C1.82129 5.94997 1.53699 6.06586 1.32738 6.27215C1.11776 6.47844 1 6.75823 1 7.04996V10.8999C1 11.1917 1.11776 11.4715 1.32738 11.6777C1.53699 11.884 1.82129 11.9999 2.11774 11.9999H3.79434" stroke="black" stroke-linecap="round" stroke-linejoin="round"/>
</svg>
