<svg width="69" height="22" viewBox="0 0 69 22" fill="none" xmlns="http://www.w3.org/2000/svg">
<g clip-path="url(#clip0_96_532)">
<path fill-rule="evenodd" clip-rule="evenodd" d="M18.022 19.756V9.43422H9.22187L9.83857 13.3336H13.4848V17.1089C12.6351 17.5761 11.8103 17.7896 10.6533 17.7896C7.03002 17.7896 5.20793 14.989 5.20793 11.0002C5.20793 7.03357 6.9685 4.33061 10.5945 4.33061C12.759 4.33061 14.6126 5.12909 16.1926 6.14289L16.8944 1.56639C15.2191 0.6119 13.0586 0 10.4711 0C3.98643 0 0 4.44974 0 11.0286C0 17.5761 3.68433 22 10.3499 22C13.2421 22 15.83 21.2025 18.022 19.756ZM35.1351 15.207C35.1351 11.8288 33.313 10.231 28.7486 8.53918C26.1281 7.52804 25.5466 7.00518 25.5466 5.92308C25.5466 4.94081 26.309 4.27481 27.8961 4.27481C29.5039 4.27481 31.4848 4.88367 33.3704 5.98798L34.1622 1.56651C32.3319 0.675831 30.5705 0.15249 27.8304 0.15249C23.8146 0.15249 20.65 2.32908 20.65 6.41949C20.65 9.92093 22.4737 11.307 26.6747 12.9324C29.6291 14.073 30.2357 14.6286 30.2357 15.8233C30.2357 17.0826 29.2012 17.7287 27.7072 17.7287C25.6091 17.7287 23.2081 16.9283 21.0437 15.7648L20.2839 20.2481C22.4162 21.2302 24.7894 21.8408 27.6157 21.8408C31.789 21.8406 35.1351 19.8172 35.1351 15.207Z" fill="#007CFF"/>
<path d="M45.7522 14.2118C48.1755 12.6033 51.4666 10.5109 51.4666 6.52737C51.4666 2.15345 47.7958 0.161621 44.3853 0.161621C39.2973 0.161621 37.2457 4.24487 36.9569 4.88213L40.8828 6.73651C41.1276 6.2942 42.2198 4.5302 44.0457 4.5302C45.2255 4.5302 46.3767 5.50822 46.3767 7.02887C46.3767 8.25364 45.0099 9.17792 43.3083 10.3487C40.611 12.2044 37.2548 14.5131 37.2548 19.2587C37.2548 19.8809 37.3243 20.5721 37.4734 21.4291H51.4713V17.179H42.837C42.837 16.2475 44.1756 15.2576 45.7522 14.2118Z" fill="#00D4EA"/>
<path d="M62.3943 10.8814C61.2825 10.8814 60.3782 9.96867 60.3782 8.84581C60.3782 7.72379 61.2825 6.81104 62.3943 6.81104C63.5061 6.81104 64.4107 7.72379 64.4107 8.84581C64.4107 9.96867 63.5061 10.8814 62.3943 10.8814Z" fill="white"/>
<path d="M63.6223 6.62119C63.3524 6.53251 62.8757 6.40137 62.3942 6.40137C61.0567 6.40137 59.9727 7.49585 59.9727 8.84557C59.9727 9.76366 60.4547 10.5481 61.2152 10.9804C61.5501 11.171 62.4017 11.4298 62.6414 11.5591C63.6592 12.1085 64.3513 13.1916 64.3513 14.4384C64.3513 16.2409 62.9038 17.7033 61.1178 17.7033C59.424 17.7033 58.0348 16.3872 57.8964 14.7132L53.5638 15.6642C54.27 19.2756 57.4232 21.9998 61.2081 21.9998C65.5118 21.9998 69.001 18.478 69.001 14.1327C69.0011 10.6376 66.7458 7.64652 63.6223 6.62119ZM62.3943 10.4719C61.5063 10.4719 60.7839 9.74255 60.7839 8.84569C60.7839 7.9498 61.5064 7.22035 62.3943 7.22035C63.2828 7.22035 64.005 7.9498 64.005 8.84569C64.005 9.74243 63.2827 10.4719 62.3943 10.4719Z" fill="#00D4EA"/>
<path d="M54.9167 0.454102L54.063 10.2745H58.4216L58.9773 4.69433H63.9833C66.9443 4.69433 68.0209 2.27051 68.0209 0.454102H54.9167Z" fill="#00D4EA"/>
</g>
<defs>
<clipPath id="clip0_96_532">
<rect width="69" height="22" fill="white"/>
</clipPath>
</defs>
</svg>
