<svg width="24" height="24" viewBox="0 0 24 24" fill="none" xmlns="http://www.w3.org/2000/svg">
<path d="M9.09 6.71041C9.18252 6.61771 9.2924 6.54416 9.41338 6.49398C9.53435 6.4438 9.66403 6.41797 9.795 6.41797C9.92597 6.41797 10.0557 6.4438 10.1766 6.49398C10.2976 6.54416 10.4075 6.61771 10.5 6.71041L15.09 11.3004C15.1827 11.3929 15.2563 11.5028 15.3064 11.6238C15.3566 11.7448 15.3824 11.8744 15.3824 12.0054C15.3824 12.1364 15.3566 12.2661 15.3064 12.387C15.2563 12.508 15.1827 12.6179 15.09 12.7104L10.5 17.3004C10.4074 17.393 10.2975 17.4664 10.1765 17.5165C10.0556 17.5666 9.92593 17.5924 9.795 17.5924C9.66407 17.5924 9.53442 17.5666 9.41346 17.5165C9.29249 17.4664 9.18258 17.393 9.09 17.3004C8.99742 17.2078 8.92398 17.0979 8.87387 16.977C8.82377 16.856 8.79798 16.7263 8.79798 16.5954C8.79798 16.4645 8.82377 16.3348 8.87387 16.2139C8.92398 16.0929 8.99742 15.983 9.09 15.8904L12.97 12.0004L9.09 8.12041C8.71 7.73041 8.71 7.09041 9.09 6.71041Z" fill="#F55B03"/>
</svg>
