<svg width="45" height="45" viewBox="0 0 45 45" fill="none" xmlns="http://www.w3.org/2000/svg">
<g clip-path="url(#clip0_131_899)">
<rect width="45" height="45" fill="white"/>
<path d="M0.229309 0.341309H44.8102V44.7769H0.229309V0.341309Z" fill="white"/>
<path d="M0.00146484 0H44.999V45H0.00146484V0Z" fill="#008061"/>
<path d="M27.745 42.0391V43.8406H16.9524V42.0357H8.78583C7.98782 42.0357 7.33782 41.1772 7.33782 40.1188L3.92035 4.54772C3.92035 3.48844 4.71853 2.62939 5.70318 2.62939H38.7046C39.6832 2.62939 40.481 3.48844 40.481 4.54755L37.1023 40.1188C37.1023 41.1772 36.4522 42.0357 35.6543 42.0357L27.745 42.0391Z" fill="white"/>
<path d="M9.9314 7.83789H32.0248C29.8494 8.67723 23.2274 13.2919 21.5734 16.3945H9.9507L9.9314 7.83789Z" fill="#F5821F"/>
<path d="M27.5392 32.3555C27.224 35.4542 27.2109 39.2277 27.2109 43.1912H17.6348C17.6348 39.2277 17.7957 35.4542 18.111 32.3555H27.5392Z" fill="#ED1B2D"/>
<path d="M12.7244 27.8779V29.0788H11.1927V30.2802H12.7244V31.6568H9.22345V25.251H12.7244V26.6778H11.1927V27.8779H12.7244ZM20.8653 27.8779V29.0788H19.3402V30.2802H20.8653V31.6568H17.3709V25.251H20.8653V26.6778H19.3402V27.8779H20.8653ZM29.8365 27.8779V29.0788H28.3048V30.2802H29.8365V31.6568H26.3356V25.251H29.8365V26.6778H28.3048V27.8779H29.8365ZM15.3501 25.251V30.2802H16.8817V31.6568H13.3808V25.251H15.3501ZM23.6908 29.5803L22.944 25.2511H21.2258L22.2039 31.6568H24.7331L25.9172 25.251H24.4565L23.6908 29.5803ZM30.6667 25.251H32.5589V31.6561H30.6667V25.251Z" fill="#008061"/>
<path d="M32.5588 27.1527C32.6619 26.4513 33.6273 26.6394 33.6273 27.0401V31.6568H35.5256V26.2276C35.5256 25.0764 33.9489 24.6134 32.5718 25.6269L32.5588 27.1529V27.1527Z" fill="#008061"/>
<path d="M28.4273 24.3501C28.6204 21.8986 31.8832 17.8953 35.0431 16.8442V7.38672C26.3486 11.3902 20.6981 17.4449 19.4755 24.3263L28.4273 24.3501Z" fill="#ED1B2D"/>
</g>
<defs>
<clipPath id="clip0_131_899">
<rect width="45" height="45" fill="white"/>
</clipPath>
</defs>
</svg>
