<svg xmlns="http://www.w3.org/2000/svg" width="24" height="24" viewBox="0 0 24 24" fill="none">
  <path d="M14.91 6.70992C14.8175 6.61722 14.7076 6.54367 14.5866 6.49349C14.4656 6.44331 14.336 6.41748 14.205 6.41748C14.074 6.41748 13.9443 6.44331 13.8234 6.49349C13.7024 6.54367 13.5925 6.61722 13.5 6.70992L8.91 11.2999C8.81729 11.3924 8.74375 11.5023 8.69357 11.6233C8.64338 11.7443 8.61755 11.874 8.61755 12.0049C8.61755 12.1359 8.64338 12.2656 8.69357 12.3865C8.74375 12.5075 8.81729 12.6174 8.91 12.7099L13.5 17.2999C13.5926 17.3925 13.7025 17.4659 13.8235 17.5161C13.9444 17.5662 14.0741 17.5919 14.205 17.5919C14.3359 17.5919 14.4656 17.5662 14.5865 17.5161C14.7075 17.4659 14.8174 17.3925 14.91 17.2999C15.0026 17.2073 15.076 17.0974 15.1261 16.9765C15.1762 16.8555 15.202 16.7259 15.202 16.5949C15.202 16.464 15.1762 16.3343 15.1261 16.2134C15.076 16.0924 15.0026 15.9825 14.91 15.8899L11.03 11.9999L14.91 8.11992C15.29 7.72992 15.29 7.08992 14.91 6.70992Z" fill="black"/>
</svg>