<svg xmlns="http://www.w3.org/2000/svg" width="67" height="45" viewBox="0 0 67 45" fill="none">
  <path d="M48.4773 13.9194C47.0864 13.9194 45.9547 15.0442 45.9547 16.4276V22.2212C45.9547 24.6152 44.3978 26.3978 42.3326 26.3978C40.2671 26.3978 38.7095 24.6152 38.7095 22.2212V16.4276C38.7095 15.0212 37.6307 13.9194 36.2543 13.9194C34.8633 13.9194 33.7319 15.0442 33.7319 16.4276V22.3307C33.7319 27.4712 37.4293 31.2384 42.3326 31.2384C44.7109 31.2384 46.9072 30.3103 48.5176 28.6252C50.1177 26.9495 50.9997 24.6747 50.9997 22.2214V16.4277C50.9995 15.0442 49.8683 13.9194 48.4773 13.9194Z" fill="#652D8D"/>
  <path d="M61.4467 40.2965C61.2347 40.2965 61.0204 40.2625 60.8131 40.1931L54.0087 38.4792C51.2344 40.0408 48.1004 40.8614 44.8881 40.8614H21.7623C11.5356 40.8614 3.216 32.5889 3.216 22.4208C3.216 12.2525 11.5354 3.97998 21.7623 3.97998H29.7484C30.8456 3.97998 31.7354 4.86504 31.7354 5.95558C31.7354 7.04703 30.8456 7.93154 29.7484 7.93154H21.7623C13.727 7.93154 7.19006 14.4312 7.19006 22.4208C7.19006 30.41 13.727 36.9088 21.7623 36.9088H44.8881C47.6689 36.9088 50.3723 36.1281 52.7056 34.6495C53.2126 34.3285 53.838 34.2532 54.4078 34.4432L58.862 35.7497L56.9798 31.8862C56.7884 31.3199 56.8641 30.6978 57.1874 30.194C58.674 27.8737 59.4601 25.1856 59.4601 22.421C59.4601 14.4314 52.9233 7.93173 44.8879 7.93173H36.9012C35.804 7.93173 34.9146 7.04721 34.9146 5.95576C34.9146 4.86504 35.804 3.98016 36.9012 3.98016H44.8879C55.1148 3.98016 63.4334 12.2527 63.4334 22.421C63.4334 25.6159 62.6086 28.7307 61.039 31.4895L63.3298 37.6904C63.5712 38.4016 63.3856 39.1868 62.8522 39.7179C62.4738 40.0941 61.9655 40.2965 61.4467 40.2965Z" fill="#AACE37"/>
  <path d="M28.658 24.517C27.9843 24.517 27.3507 24.778 26.8746 25.2519C26.116 26.0062 25.1052 26.4213 24.0299 26.4213C22.9544 26.4213 21.9444 26.0062 21.1863 25.2512C20.3959 24.4665 19.9434 23.4357 19.9434 22.4233C19.9434 21.4109 20.3959 20.3798 21.1863 19.5939C21.9458 18.8391 22.956 18.4225 24.0299 18.4225C25.1043 18.4225 26.1144 18.8389 26.8746 19.5939C27.3503 20.0678 27.9836 20.3288 28.658 20.3288C29.332 20.3288 29.9653 20.0676 30.4421 19.5939C31.425 18.6164 31.425 17.0255 30.4421 16.047C28.7298 14.3439 26.4527 13.4062 24.0301 13.4062C21.6082 13.4062 19.3316 14.3441 17.6194 16.047C14.0845 19.5626 14.0845 25.2837 17.6194 28.8003C19.3291 30.4998 21.6056 31.4361 24.0301 31.4361C26.4547 31.4361 28.7318 30.4995 30.4421 28.7988C31.425 27.8217 31.425 26.2297 30.4421 25.2512C29.9647 24.7773 29.3311 24.517 28.658 24.517Z" fill="#652D8D"/>
</svg>