<svg xmlns="http://www.w3.org/2000/svg" width="16" height="7" viewBox="0 0 16 7" fill="none">
  <path fill-rule="evenodd" clip-rule="evenodd" d="M1.10038 0.621148C1.15988 0.517189 1.23724 0.427279 1.32803 0.356558C1.41882 0.285838 1.52126 0.235693 1.6295 0.208992C1.73775 0.182292 1.84967 0.179558 1.95886 0.200947C2.06805 0.222336 2.17238 0.267428 2.26588 0.333647L8.00001 4.38865L13.7341 0.333647C13.923 0.200044 14.1519 0.155277 14.3705 0.209194C14.589 0.263111 14.7794 0.411295 14.8996 0.621148C15.0199 0.831 15.0602 1.08533 15.0116 1.32819C14.9631 1.57105 14.8298 1.78255 14.6409 1.91615L8.45338 6.29115C8.31792 6.38705 8.16063 6.43799 8.00001 6.43799C7.83939 6.43799 7.6821 6.38705 7.54663 6.29115L1.35913 1.91615C1.26557 1.85004 1.18465 1.76409 1.121 1.66321C1.05735 1.56233 1.01223 1.4485 0.988194 1.32824C0.964164 1.20797 0.961703 1.08361 0.980953 0.962286C1.0002 0.840958 1.04079 0.725037 1.10038 0.621148Z" fill="black"/>
</svg>