<svg xmlns="http://www.w3.org/2000/svg" width="23" height="21" viewBox="0 0 23 21" fill="none">
  <path d="M18.6518 1.10139C19.4028 1.69868 19.9203 2.66344 20.1319 3.6737L20.2066 3.70403L22.5584 4.80761C22.6898 4.86896 22.8011 4.9671 22.8794 5.09049C22.9576 5.21387 22.9994 5.35736 23 5.50406V19.9311C22.9992 20.051 22.971 20.169 22.9176 20.2759C22.8643 20.3829 22.7872 20.4758 22.6925 20.5475C22.5978 20.6191 22.488 20.6675 22.3718 20.6889C22.2555 20.7103 22.136 20.7041 22.0225 20.6708L15.5031 18.8042L7.75215 20.9717C7.61234 21.011 7.46445 21.0093 7.3255 20.9671L0.5451 18.9197C0.388379 18.873 0.250688 18.7763 0.152485 18.6439C0.0542811 18.5115 0.000804609 18.3505 0 18.1848L0 3.49871C0 2.98542 0.4922 2.61678 0.98325 2.76144L7.54055 4.69912L10.8733 3.66437C10.9192 3.65037 10.966 3.64065 11.0135 3.6352C11.1423 2.86993 11.5023 2.13498 12.1061 1.4187C12.8225 0.567101 14.0794 0.067805 15.3042 0.00830944C16.5749 -0.0535192 17.5455 0.221793 18.6507 1.10023M1.53295 4.5288V17.612L7.13345 19.3024V6.18184L1.53295 4.5288ZM10.9733 5.24508L8.6664 5.96019V19.118L14.4911 17.4918V13.6479C14.4911 13.2233 14.835 12.8792 15.2582 12.8792C15.6814 12.8792 16.0241 13.2233 16.0241 13.6491V17.3553L21.467 18.9127V5.99286L20.1791 5.38624C20.1576 5.51456 20.1296 5.64016 20.0951 5.76304C19.846 6.6579 19.4264 7.49455 18.86 8.22569L16.0114 11.8339C15.9364 11.9288 15.8407 12.0046 15.7317 12.0553C15.6227 12.106 15.5036 12.1303 15.3838 12.1261C15.264 12.1219 15.1468 12.0894 15.0415 12.0312C14.9363 11.973 14.8459 11.8906 14.7775 11.7908L12.1152 7.87922C11.6752 7.25782 11.3681 6.69942 11.1941 6.20401C11.0847 5.89396 11.0106 5.57222 10.9733 5.24508ZM15.3778 1.54586C14.5429 1.58669 13.685 1.92733 13.2767 2.41146C12.7857 2.99475 12.5442 3.54071 12.4959 4.09367C12.4384 4.75979 12.4775 5.22992 12.6408 5.69538C12.7615 6.03952 13.0019 6.47582 13.3733 7.00195L15.456 10.0607L17.6525 7.27843C18.0959 6.70414 18.4245 6.0475 18.6196 5.34541C18.8956 4.36548 18.4793 2.92592 17.6996 2.30764C16.9004 1.67185 16.2966 1.50036 15.379 1.54586M15.5376 2.35897C16.8072 2.35897 17.8376 3.39139 17.8376 4.66529C17.8337 5.28038 17.5893 5.86874 17.158 6.30117C16.7268 6.73359 16.144 6.97472 15.5376 6.97162C14.268 6.97162 13.2376 5.9392 13.2376 4.66529C13.2376 3.39139 14.268 2.35897 15.5376 2.35897ZM15.5376 3.89652C15.4375 3.8959 15.3383 3.9153 15.2455 3.9536C15.1528 3.9919 15.0684 4.04836 14.9972 4.11975C14.9259 4.19114 14.8693 4.27606 14.8304 4.36966C14.7915 4.46327 14.7712 4.56372 14.7706 4.66529C14.7706 5.08993 15.1144 5.43407 15.5376 5.43407C15.6378 5.43453 15.737 5.41498 15.8297 5.37653C15.9224 5.33809 16.0067 5.28151 16.0778 5.21001C16.1489 5.13851 16.2055 5.05351 16.2442 4.95984C16.2829 4.86618 16.3031 4.7657 16.3035 4.66413C16.302 4.4594 16.2206 4.26364 16.077 4.11975C15.9334 3.97586 15.7395 3.89559 15.5376 3.89652Z" fill="white"/>
</svg>