<svg xmlns="http://www.w3.org/2000/svg" width="20" height="20" viewBox="0 0 20 20" fill="none">
  <path fill-rule="evenodd" clip-rule="evenodd" d="M4.65005 2.0249C4.65005 1.52762 4.8476 1.05071 5.19923 0.699077C5.55086 0.347446 6.02777 0.149902 6.52505 0.149902C7.02233 0.149902 7.49925 0.347446 7.85088 0.699077C8.20251 1.05071 8.40005 1.52762 8.40005 2.0249V4.8639C8.6401 4.73821 8.90452 4.66602 9.17513 4.65228C9.44575 4.63854 9.71612 4.68359 9.96766 4.78432C10.2192 4.88505 10.4459 5.03907 10.6323 5.2358C10.8186 5.43252 10.9601 5.66727 11.0471 5.9239C11.3311 5.75108 11.6561 5.65695 11.9885 5.65118C12.321 5.64542 12.649 5.72821 12.9389 5.89108C13.2288 6.05395 13.4702 6.29101 13.6382 6.57796C13.8062 6.8649 13.8949 7.19138 13.8951 7.5239V7.7349C14.0537 7.6789 14.2211 7.65057 14.3971 7.6499H14.7711C15.8071 7.6499 16.6461 8.4899 16.6461 9.5249V13.0849L16.6511 13.1499C16.6511 15.2899 15.8411 16.8169 14.5831 17.7949C13.3451 18.7579 11.7251 19.1499 10.1511 19.1499C8.56105 19.1499 7.21605 18.7509 6.06705 18.0069C4.92605 17.2689 4.00405 16.2069 3.22805 14.9169C2.89191 14.4037 2.56585 13.8839 2.25005 13.3579C1.11705 11.4909 2.49005 9.1499 4.65005 9.1499V2.0249ZM4.03205 14.4089L4.02505 14.3999C3.69402 13.8949 3.37295 13.3835 3.06205 12.8659C2.32505 11.6499 3.20805 10.0999 4.65005 10.0999H4.70005V11.6499C4.70005 11.7692 4.74746 11.8837 4.83186 11.9681C4.91625 12.0525 5.03071 12.0999 5.15005 12.0999C5.2694 12.0999 5.38386 12.0525 5.46825 11.9681C5.55264 11.8837 5.60005 11.7692 5.60005 11.6499V2.0249C5.60005 1.77958 5.69751 1.5443 5.87098 1.37083C6.04445 1.19736 6.27973 1.0999 6.52505 1.0999C6.77038 1.0999 7.00566 1.19736 7.17913 1.37083C7.3526 1.5443 7.45005 1.77958 7.45005 2.0249L7.44705 9.1499C7.44705 9.26925 7.49446 9.38371 7.57886 9.4681C7.66325 9.55249 7.77771 9.5999 7.89705 9.5999C8.0164 9.5999 8.13086 9.55249 8.21525 9.4681C8.29964 9.38371 8.34705 9.26925 8.34705 9.1499V6.5009C8.36078 6.26286 8.4658 6.03929 8.64024 5.87674C8.81469 5.71419 9.04511 5.6252 9.28353 5.62829C9.52195 5.63139 9.74998 5.72633 9.92015 5.89334C10.0903 6.06036 10.1895 6.28658 10.1971 6.5249V8.7499C10.1971 8.86925 10.2445 8.98371 10.3289 9.0681C10.4132 9.15249 10.5277 9.1999 10.6471 9.1999C10.7664 9.1999 10.8809 9.15249 10.9653 9.0681C11.0496 8.98371 11.0971 8.86925 11.0971 8.7499V8.2099C11.0999 8.1897 11.1013 8.16931 11.1011 8.1489L11.0991 7.5249C11.0989 7.40356 11.1227 7.28338 11.169 7.17123C11.2153 7.05907 11.2833 6.95714 11.369 6.87124C11.4547 6.78535 11.5565 6.71718 11.6685 6.67062C11.7806 6.62406 11.9007 6.60003 12.0221 6.5999C12.1434 6.59977 12.2636 6.62354 12.3757 6.66985C12.4879 6.71617 12.5898 6.78412 12.6757 6.86983C12.7616 6.95554 12.8298 7.05732 12.8763 7.16938C12.9229 7.28143 12.9469 7.40156 12.9471 7.5229V9.6499C12.9471 9.76925 12.9945 9.88371 13.0789 9.9681C13.1632 10.0525 13.2777 10.0999 13.3971 10.0999C13.5164 10.0999 13.6309 10.0525 13.7153 9.9681C13.7996 9.88371 13.8471 9.76925 13.8471 9.6499V9.1499C13.8471 9.00403 13.905 8.86414 14.0081 8.76099C14.1113 8.65785 14.2512 8.5999 14.3971 8.5999H14.7711C15.2821 8.5999 15.6961 9.0139 15.6961 9.5249V13.1499C15.6961 13.1699 15.6974 13.1889 15.7001 13.2069L15.7011 13.2139C15.6851 15.0519 14.9941 16.2709 14.0001 17.0439C12.9761 17.8399 11.5841 18.1999 10.1501 18.1999C8.73005 18.1999 7.56705 17.8459 6.58305 17.2099C5.59305 16.5699 4.76305 15.6279 4.03705 14.4179L4.03205 14.4089Z" fill="white"/>
</svg>