<svg width="123" height="96" viewBox="0 0 123 96" fill="none" xmlns="http://www.w3.org/2000/svg">
<rect x="29" y="2" width="64" height="34" rx="3" stroke="white" stroke-width="4"/>
<path d="M58.008 25.348C58.5493 25.348 59.0067 25.544 59.38 25.936C59.772 26.3093 59.968 26.7573 59.968 27.28C59.968 27.8213 59.772 28.2787 59.38 28.652C59.0067 29.044 58.5493 29.24 58.008 29.24H46.08C45.24 29.24 44.624 28.8013 44.232 27.924C43.9707 27.084 44.176 26.3653 44.848 25.768L54.676 17.928C55.404 17.2933 55.768 16.5373 55.768 15.66C55.768 14.8573 55.4787 14.176 54.9 13.616C54.34 13.0373 53.6587 12.748 52.856 12.748H50.56C49.944 12.748 49.412 12.972 48.964 13.42C48.5347 13.8493 48.32 14.372 48.32 14.988C48.32 15.5293 48.1333 15.9867 47.76 16.36C47.3867 16.7333 46.9293 16.92 46.388 16.92C45.8467 16.92 45.38 16.7333 44.988 16.36C44.6147 15.9867 44.428 15.5293 44.428 14.988C44.428 13.2893 45.0253 11.8427 46.22 10.648C47.4147 9.45333 48.8613 8.856 50.56 8.856H52.856C54.7227 8.856 56.3187 9.528 57.644 10.872C58.988 12.1973 59.66 13.7933 59.66 15.66C59.66 17.732 58.8107 19.5053 57.112 20.98L51.624 25.348H58.008ZM77.8957 19.692C78.437 19.692 78.8943 19.888 79.2677 20.28C79.641 20.6533 79.8277 21.1107 79.8277 21.652C79.8277 22.1933 79.641 22.66 79.2677 23.052C78.8943 23.4253 78.437 23.612 77.8957 23.612H77.7557V27.28C77.7557 27.8213 77.5597 28.2787 77.1677 28.652C76.7943 29.044 76.337 29.24 75.7957 29.24C75.2543 29.24 74.797 29.044 74.4237 28.652C74.0503 28.2787 73.8637 27.8213 73.8637 27.28V23.612H64.9877C64.4463 23.612 63.9797 23.4253 63.5877 23.052C63.2143 22.66 63.0277 22.1933 63.0277 21.652V15.464C63.0277 13.6347 63.6717 12.076 64.9597 10.788C66.2477 9.5 67.797 8.856 69.6077 8.856C70.149 8.856 70.6063 9.052 70.9797 9.444C71.3717 9.81733 71.5677 10.2747 71.5677 10.816C71.5677 11.3573 71.3717 11.8147 70.9797 12.188C70.6063 12.5613 70.149 12.748 69.6077 12.748C68.8797 12.748 68.245 13.0187 67.7037 13.56C67.181 14.0827 66.9197 14.7173 66.9197 15.464V19.692H73.8637V10.816C73.8637 10.2747 74.0503 9.81733 74.4237 9.444C74.797 9.052 75.2543 8.856 75.7957 8.856C76.337 8.856 76.7943 9.052 77.1677 9.444C77.5597 9.81733 77.7557 10.2747 77.7557 10.816V19.692H77.8957Z" fill="white"/>
<rect x="34" y="38" width="3.5" height="12" fill="white"/>
<rect x="43" y="38" width="3.5" height="12" fill="white"/>
<rect x="119" y="58" width="4" height="115" transform="rotate(90 119 58)" fill="white"/>
<rect width="4" height="24" transform="matrix(-1 0 0 1 11 72)" fill="white"/>
<rect width="4" height="91" rx="2" transform="matrix(0 -1 -1 0 107 86)" fill="white"/>
<path d="M16 96H20V85C20 83.8954 19.1046 83 18 83C16.8954 83 16 83.8954 16 85V96Z" fill="white"/>
<path d="M103 96H107V85C107 83.8954 106.105 83 105 83C103.895 83 103 83.8954 103 85V96Z" fill="white"/>
<rect width="4" height="24" transform="matrix(-1 0 0 1 115 72)" fill="white"/>
<rect x="75" y="38" width="3.5" height="12" fill="white"/>
<rect x="84" y="38" width="3.5" height="12" fill="white"/>
<rect x="2" y="49" width="119" height="21" rx="3" stroke="white" stroke-width="4"/>
<rect x="2" y="49" width="119" height="21" rx="3" stroke="white" stroke-width="4"/>
<rect x="21" y="62" width="81" height="34" fill="#F55B03"/>
<path d="M30.306 81.816C29.69 81.816 29.008 81.794 28.26 81.75C27.534 81.706 26.808 81.629 26.082 81.519C25.378 81.409 24.696 81.266 24.036 81.09C23.398 80.914 22.837 80.705 22.353 80.463C22.133 80.353 21.957 80.166 21.825 79.902C21.693 79.616 21.682 79.308 21.792 78.978C21.902 78.648 22.122 78.406 22.452 78.252C22.782 78.098 23.068 78.076 23.31 78.186C24.036 78.428 24.707 78.626 25.323 78.78C25.147 77.262 25.07 75.689 25.092 74.061C25.114 72.433 25.191 70.761 25.323 69.045H23.409C23.167 69.045 22.925 68.924 22.683 68.682C22.441 68.44 22.32 68.165 22.32 67.857C22.32 67.549 22.43 67.274 22.65 67.032C22.87 66.768 23.112 66.636 23.376 66.636H37.17C37.412 66.636 37.654 66.757 37.896 66.999C38.16 67.219 38.292 67.505 38.292 67.857C38.292 68.165 38.182 68.44 37.962 68.682C37.742 68.924 37.489 69.045 37.203 69.045H27.93C27.754 70.695 27.666 72.389 27.666 74.127C27.666 75.843 27.754 77.548 27.93 79.242C28.656 79.308 29.448 79.341 30.306 79.341C31.186 79.341 31.989 79.308 32.715 79.242C32.847 77.724 32.891 76.338 32.847 75.084C32.825 73.83 32.759 72.653 32.649 71.553C32.627 71.333 32.682 71.08 32.814 70.794C32.968 70.486 33.276 70.299 33.738 70.233C34.156 70.167 34.497 70.244 34.761 70.464C35.047 70.662 35.212 70.915 35.256 71.223C35.41 72.235 35.487 73.412 35.487 74.754C35.487 76.096 35.432 77.438 35.322 78.78C35.96 78.604 36.62 78.406 37.302 78.186C37.544 78.076 37.819 78.098 38.127 78.252C38.457 78.406 38.677 78.648 38.787 78.978C38.897 79.308 38.886 79.616 38.754 79.902C38.644 80.166 38.479 80.353 38.259 80.463C37.071 80.969 35.828 81.321 34.53 81.519C33.232 81.717 31.824 81.816 30.306 81.816ZM45.618 67.296C45.684 67.912 45.739 68.671 45.783 69.573C45.827 70.453 45.86 71.41 45.882 72.444C45.904 73.478 45.915 74.545 45.915 75.645C45.915 76.745 45.904 77.812 45.882 78.846C45.86 79.858 45.827 80.804 45.783 81.684C45.739 82.564 45.684 83.301 45.618 83.895C45.574 84.225 45.398 84.5 45.09 84.72C44.782 84.918 44.463 84.995 44.133 84.951C43.781 84.929 43.484 84.797 43.242 84.555C43.022 84.313 42.923 84.016 42.945 83.664C43.011 82.916 43.055 82.058 43.077 81.09C43.121 80.122 43.154 79.077 43.176 77.955H39.447C39.183 77.955 38.93 77.834 38.688 77.592C38.468 77.328 38.358 77.042 38.358 76.734C38.358 76.426 38.468 76.151 38.688 75.909C38.908 75.645 39.161 75.513 39.447 75.513H43.209C43.187 75.007 43.176 74.501 43.176 73.995C43.176 73.489 43.165 72.983 43.143 72.477H39.447C39.183 72.477 38.93 72.356 38.688 72.114C38.468 71.85 38.358 71.564 38.358 71.256C38.358 70.948 38.468 70.673 38.688 70.431C38.908 70.167 39.161 70.035 39.447 70.035H43.077C43.055 69.573 43.033 69.133 43.011 68.715C42.989 68.297 42.967 67.901 42.945 67.527C42.923 67.175 43.022 66.889 43.242 66.669C43.462 66.427 43.748 66.284 44.1 66.24C44.452 66.196 44.782 66.273 45.09 66.471C45.398 66.647 45.574 66.922 45.618 67.296ZM45.717 91.749C45.123 92.013 44.441 92.222 43.671 92.376C42.923 92.552 42.131 92.684 41.295 92.772C40.481 92.882 39.645 92.959 38.787 93.003C37.951 93.069 37.159 93.102 36.411 93.102C35.663 93.102 34.849 93.08 33.969 93.036C33.111 93.014 32.264 92.959 31.428 92.871C30.592 92.805 29.822 92.706 29.118 92.574C28.414 92.464 27.842 92.321 27.402 92.145C27.006 91.969 26.643 91.738 26.313 91.452C26.005 91.188 25.796 90.814 25.686 90.33C25.62 90 25.565 89.593 25.521 89.109C25.477 88.603 25.455 88.086 25.455 87.558C25.455 87.008 25.466 86.458 25.488 85.908C25.532 85.358 25.576 84.863 25.62 84.423C25.642 84.181 25.763 83.95 25.983 83.73C26.225 83.488 26.555 83.367 26.973 83.367C27.369 83.367 27.677 83.499 27.897 83.763C28.139 84.027 28.249 84.28 28.227 84.522C28.183 84.852 28.139 85.237 28.095 85.677C28.073 86.117 28.062 86.579 28.062 87.063C28.062 87.547 28.073 88.009 28.095 88.449C28.117 88.889 28.161 89.274 28.227 89.604C28.249 89.714 28.337 89.802 28.491 89.868C28.755 89.978 29.195 90.077 29.811 90.165C30.449 90.275 31.153 90.363 31.923 90.429C32.715 90.495 33.529 90.55 34.365 90.594C35.201 90.638 35.971 90.66 36.675 90.66C38.061 90.66 39.469 90.561 40.899 90.363C42.351 90.165 43.638 89.879 44.76 89.505C45.002 89.395 45.277 89.406 45.585 89.538C45.915 89.648 46.135 89.879 46.245 90.231C46.355 90.561 46.344 90.869 46.212 91.155C46.102 91.441 45.937 91.639 45.717 91.749ZM51.6506 75.645C51.3426 75.689 51.0456 75.623 50.7596 75.447C50.4736 75.249 50.2976 74.985 50.2316 74.655C50.1876 74.413 50.2316 74.149 50.3636 73.863C50.4956 73.555 50.7156 73.357 51.0236 73.269C52.1236 73.027 53.1686 72.719 54.1586 72.345C55.1486 71.971 56.0176 71.542 56.7656 71.058C57.5136 70.552 58.1076 69.98 58.5476 69.342C59.0096 68.682 59.2406 67.956 59.2406 67.164V66.999C59.2406 66.757 59.3616 66.515 59.6036 66.273C59.8456 66.031 60.1536 65.91 60.5276 65.91C60.9016 65.91 61.2316 66.02 61.5176 66.24C61.8036 66.46 61.9466 66.713 61.9466 66.999V67.362C61.9466 68.484 61.6386 69.507 61.0226 70.431C60.4066 71.355 59.6036 72.169 58.6136 72.873C57.6236 73.555 56.5126 74.138 55.2806 74.622C54.0706 75.084 52.8606 75.425 51.6506 75.645ZM70.9886 73.071C71.2966 73.203 71.5056 73.456 71.6156 73.83C71.7476 74.182 71.7146 74.534 71.5166 74.886C71.3186 75.238 71.0216 75.425 70.6256 75.447C70.2516 75.469 69.9436 75.425 69.7016 75.315L62.6396 72.444C62.3536 72.312 62.1336 72.081 61.9796 71.751C61.8476 71.399 61.8696 71.025 62.0456 70.629C62.2216 70.277 62.5076 70.079 62.9036 70.035C63.2996 69.969 63.6076 69.991 63.8276 70.101L70.9886 73.071ZM49.4726 79.044C49.1206 79 48.8346 78.846 48.6146 78.582C48.3946 78.296 48.3066 77.988 48.3506 77.658C48.3946 77.284 48.5486 77.009 48.8126 76.833C49.0986 76.635 49.4066 76.558 49.7366 76.602C50.6166 76.69 51.6506 76.767 52.8386 76.833C54.0486 76.877 55.3356 76.921 56.6996 76.965C58.0636 76.987 59.4716 77.009 60.9236 77.031C62.3756 77.031 63.7836 77.02 65.1476 76.998C66.5116 76.954 67.7876 76.899 68.9756 76.833C70.1856 76.767 71.2196 76.69 72.0776 76.602C72.4296 76.558 72.7486 76.635 73.0346 76.833C73.3206 77.031 73.4746 77.306 73.4966 77.658C73.5406 77.988 73.4416 78.296 73.1996 78.582C72.9576 78.846 72.6826 79 72.3746 79.044C71.8686 79.11 71.1976 79.165 70.3616 79.209C69.5476 79.253 68.6126 79.297 67.5566 79.341V81.453H69.0746C69.5146 81.453 69.8886 81.574 70.1966 81.816C70.5266 82.058 70.7356 82.399 70.8236 82.839C70.8676 83.059 70.9006 83.356 70.9226 83.73C70.9446 84.082 70.9556 84.456 70.9556 84.852C70.9556 85.226 70.9336 85.6 70.8896 85.974C70.8676 86.326 70.8236 86.623 70.7576 86.865C70.6696 87.173 70.4826 87.47 70.1966 87.756C69.9106 88.02 69.5146 88.152 69.0086 88.152H53.3006C53.2786 88.328 53.2676 88.559 53.2676 88.845C53.2676 89.131 53.3006 89.428 53.3666 89.736C53.3886 89.846 53.4766 89.934 53.6306 90C53.8946 90.11 54.3346 90.209 54.9506 90.297C55.5886 90.385 56.2926 90.451 57.0626 90.495C57.8546 90.561 58.6686 90.605 59.5046 90.627C60.3406 90.671 61.1106 90.693 61.8146 90.693C63.2006 90.693 64.6196 90.594 66.0716 90.396C67.5456 90.198 68.8436 89.912 69.9656 89.538C70.2076 89.428 70.4826 89.45 70.7906 89.604C71.1206 89.736 71.3406 89.967 71.4506 90.297C71.5606 90.627 71.5496 90.924 71.4176 91.188C71.3076 91.452 71.1426 91.639 70.9226 91.749C70.3286 92.013 69.6466 92.222 68.8766 92.376C68.1066 92.552 67.3036 92.684 66.4676 92.772C65.6316 92.882 64.7846 92.959 63.9266 93.003C63.0906 93.069 62.2986 93.102 61.5506 93.102C60.8026 93.102 59.9886 93.091 59.1086 93.069C58.2506 93.047 57.4036 93.003 56.5676 92.937C55.7316 92.871 54.9616 92.783 54.2576 92.673C53.5536 92.563 52.9816 92.42 52.5416 92.244C52.1456 92.068 51.7826 91.837 51.4526 91.551C51.1446 91.287 50.9356 90.913 50.8256 90.429C50.6716 89.747 50.6166 89.076 50.6606 88.416C50.7266 87.734 50.7926 87.239 50.8586 86.931C50.9246 86.689 51.0676 86.425 51.2876 86.139C51.5076 85.853 51.7936 85.71 52.1456 85.71H68.2826C68.3266 85.6 68.3596 85.424 68.3816 85.182C68.4036 84.918 68.4036 84.665 68.3816 84.423C68.3816 84.313 68.3376 84.203 68.2496 84.093C68.1616 83.961 67.9966 83.895 67.7546 83.895H52.2776C52.0356 83.895 51.7936 83.774 51.5516 83.532C51.3096 83.268 51.1886 82.971 51.1886 82.641C51.1886 82.333 51.2986 82.058 51.5186 81.816C51.7386 81.574 51.9916 81.453 52.2776 81.453H54.6206V79.407C53.5206 79.363 52.5306 79.319 51.6506 79.275C50.7706 79.209 50.0446 79.132 49.4726 79.044ZM64.8506 79.44C63.6186 79.462 62.3646 79.484 61.0886 79.506C59.8126 79.506 58.5586 79.484 57.3266 79.44V81.453H64.8506V79.44ZM76.9719 78.12C76.8399 77.482 76.7849 76.723 76.8069 75.843C76.8289 74.963 76.9059 74.16 77.0379 73.434C77.0819 73.192 77.2249 72.928 77.4669 72.642C77.7089 72.356 77.9949 72.213 78.3249 72.213H85.8489C85.9149 71.817 85.9479 71.377 85.9479 70.893C85.9479 70.409 85.9259 69.98 85.8819 69.606C85.8599 69.496 85.8269 69.375 85.7829 69.243C85.7609 69.111 85.6289 69.045 85.3869 69.045H78.4239C78.1819 69.045 77.9399 68.924 77.6979 68.682C77.4779 68.418 77.3679 68.132 77.3679 67.824C77.3679 67.516 77.4779 67.241 77.6979 66.999C77.9179 66.757 78.1709 66.636 78.4569 66.636H86.6739C87.1139 66.636 87.4879 66.823 87.7959 67.197C88.1039 67.571 88.3019 67.978 88.3899 68.418C88.4339 68.704 88.4669 69.056 88.4889 69.474C88.5109 69.87 88.5219 70.299 88.5219 70.761C88.5219 71.201 88.4999 71.641 88.4559 72.081C88.4119 72.521 88.3569 72.928 88.2909 73.302C88.2249 73.61 88.0379 73.907 87.7299 74.193C87.4439 74.479 87.0479 74.622 86.5419 74.622H79.4799C79.4359 74.842 79.4029 75.205 79.3809 75.711C79.3589 76.217 79.3809 76.69 79.4469 77.13C79.4689 77.196 79.4909 77.273 79.5129 77.361C79.5349 77.449 79.5899 77.537 79.6779 77.625C80.0079 77.845 80.5249 78.021 81.2289 78.153C81.9329 78.285 82.7029 78.351 83.5389 78.351C84.5069 78.351 85.4309 78.263 86.3109 78.087C87.1909 77.889 87.8399 77.691 88.2579 77.493C88.3899 77.427 88.5329 77.405 88.6869 77.427C88.8629 77.427 89.0279 77.471 89.1819 77.559C89.3579 77.625 89.5119 77.724 89.6439 77.856C89.7979 77.988 89.8969 78.153 89.9409 78.351C90.0289 78.703 89.9739 79 89.7759 79.242C89.5999 79.484 89.4019 79.66 89.1819 79.77C88.5219 80.122 87.6529 80.397 86.5749 80.595C85.5189 80.793 84.4959 80.892 83.5059 80.892C82.5159 80.892 81.5699 80.804 80.6679 80.628C79.7879 80.452 79.0949 80.243 78.5889 80.001C77.7089 79.561 77.1699 78.934 76.9719 78.12ZM99.4119 67.296C99.5219 68.22 99.5989 69.243 99.6429 70.365C99.6869 71.487 99.6979 72.631 99.6759 73.797C99.6759 74.963 99.6539 76.107 99.6099 77.229C99.5659 78.351 99.4999 79.363 99.4119 80.265C99.3899 80.595 99.2139 80.87 98.8839 81.09C98.5759 81.288 98.2569 81.365 97.9269 81.321C97.5749 81.299 97.2779 81.167 97.0359 80.925C96.8159 80.683 96.7169 80.386 96.7389 80.034C96.8049 79.242 96.8489 78.45 96.8709 77.658C96.9149 76.844 96.9479 76.019 96.9699 75.183H93.7689C93.7469 76.085 93.7139 76.954 93.6699 77.79C93.6259 78.626 93.5709 79.396 93.5049 80.1C93.4829 80.43 93.3069 80.705 92.9769 80.925C92.6689 81.123 92.3499 81.2 92.0199 81.156C91.6679 81.134 91.3709 81.002 91.1289 80.76C90.9089 80.518 90.8099 80.221 90.8319 79.869C91.0079 77.823 91.0849 75.799 91.0629 73.797C91.0629 71.795 90.9859 69.76 90.8319 67.692C90.8099 67.34 90.9089 67.054 91.1289 66.834C91.3489 66.592 91.6349 66.449 91.9869 66.405C92.3389 66.361 92.6689 66.438 92.9769 66.636C93.2849 66.812 93.4609 67.087 93.5049 67.461C93.5929 68.231 93.6589 69.067 93.7029 69.969C93.7469 70.871 93.7689 71.795 93.7689 72.741H96.9699C96.9479 71.861 96.9149 70.992 96.8709 70.134C96.8489 69.254 96.8049 68.385 96.7389 67.527C96.7169 67.175 96.8159 66.889 97.0359 66.669C97.2559 66.427 97.5419 66.284 97.8939 66.24C98.2459 66.196 98.5759 66.273 98.8839 66.471C99.1919 66.647 99.3679 66.922 99.4119 67.296ZM99.8079 87.921C99.8079 88.933 99.5219 89.78 98.9499 90.462C98.3999 91.166 97.6409 91.738 96.6729 92.178C95.7049 92.618 94.5719 92.937 93.2739 93.135C91.9759 93.333 90.5899 93.432 89.1159 93.432C87.6639 93.432 86.2889 93.333 84.9909 93.135C83.6929 92.937 82.5599 92.618 81.5919 92.178C80.6459 91.738 79.8869 91.166 79.3149 90.462C78.7649 89.78 78.4899 88.933 78.4899 87.921C78.4899 86.887 78.7649 86.018 79.3149 85.314C79.8869 84.61 80.6459 84.038 81.5919 83.598C82.5599 83.158 83.6929 82.839 84.9909 82.641C86.2889 82.443 87.6639 82.344 89.1159 82.344C90.5899 82.344 91.9759 82.443 93.2739 82.641C94.5719 82.839 95.7049 83.158 96.6729 83.598C97.6409 84.038 98.3999 84.61 98.9499 85.314C99.5219 86.018 99.8079 86.887 99.8079 87.921ZM97.1019 87.921C97.1019 87.327 96.9039 86.832 96.5079 86.436C96.1339 86.018 95.5949 85.699 94.8909 85.479C94.1869 85.237 93.3399 85.072 92.3499 84.984C91.3819 84.874 90.3039 84.819 89.1159 84.819C87.9279 84.819 86.8499 84.874 85.8819 84.984C84.9139 85.072 84.0779 85.237 83.3739 85.479C82.6919 85.699 82.1529 86.018 81.7569 86.436C81.3829 86.832 81.1959 87.327 81.1959 87.921C81.1959 88.493 81.3829 88.977 81.7569 89.373C82.1529 89.769 82.6919 90.077 83.3739 90.297C84.0779 90.539 84.9139 90.704 85.8819 90.792C86.8499 90.902 87.9279 90.957 89.1159 90.957C90.3039 90.957 91.3819 90.902 92.3499 90.792C93.3399 90.704 94.1869 90.539 94.8909 90.297C95.5949 90.077 96.1339 89.769 96.5079 89.373C96.9039 88.977 97.1019 88.493 97.1019 87.921Z" fill="white"/>
</svg>
