<svg xmlns="http://www.w3.org/2000/svg" width="18" height="20" viewBox="0 0 18 20" fill="none">
  <path fill-rule="evenodd" clip-rule="evenodd" d="M2.10038 12.3789C2.15988 12.4828 2.23724 12.5727 2.32803 12.6434C2.41882 12.7142 2.52126 12.7643 2.6295 12.791C2.73775 12.8177 2.84967 12.8204 2.95886 12.7991C3.06805 12.7777 3.17238 12.7326 3.26588 12.6664L9.00001 8.61135L14.7341 12.6664C14.923 12.8 15.1519 12.8447 15.3705 12.7908C15.589 12.7369 15.7794 12.5887 15.8996 12.3789C16.0199 12.169 16.0602 11.9147 16.0116 11.6718C15.9631 11.4289 15.8298 11.2175 15.6409 11.0839L9.45338 6.70885C9.31792 6.61295 9.16063 6.56201 9.00001 6.56201C8.83939 6.56201 8.6821 6.61295 8.54663 6.70885L2.35913 11.0839C2.26557 11.15 2.18465 11.2359 2.121 11.3368C2.05735 11.4377 2.01223 11.5515 1.98819 11.6718C1.96416 11.792 1.9617 11.9164 1.98095 12.0377C2.0002 12.159 2.04079 12.275 2.10038 12.3789Z" fill="black"/>
</svg>